<svg width="211" height="44" viewBox="0 0 211 44" fill="none" xmlns="http://www.w3.org/2000/svg">
<path d="M13.2964 32.328C12.2524 32.328 11.1891 32.2893 10.1064 32.212C9.02374 32.1347 7.86374 31.98 6.62641 31.748L6.97441 24.208C7.82507 24.3627 8.79174 24.498 9.87441 24.614C10.9957 24.6913 12.0977 24.73 13.1804 24.73C14.7271 24.73 15.9837 24.5173 16.9504 24.092C17.9171 23.6667 18.6324 22.99 19.0964 22.062C19.5604 21.134 19.7924 19.9547 19.7924 18.524C19.7924 16.552 19.2124 15.044 18.0524 14C16.8924 12.9173 15.2104 12.376 13.0064 12.376H10.7444V43H0.0144063V4.836H14.2824C17.7624 4.836 20.7397 5.358 23.2144 6.402C25.6891 7.446 27.5837 8.896 28.8984 10.752C30.2131 12.608 30.8704 14.754 30.8704 17.19C30.8704 19.4327 30.4064 21.482 29.4784 23.338C28.5891 25.1553 27.3324 26.7407 25.7084 28.094C24.1231 29.4087 22.2671 30.4527 20.1404 31.226C18.0137 31.9607 15.7324 32.328 13.2964 32.328ZM33.8959 43V18.872L42.2479 17.48L44.2199 22.468V43H33.8959ZM41.8999 28.848L40.6239 26.586C41.9773 23.7633 43.4273 21.5593 44.9739 19.974C46.5593 18.3887 48.4926 17.596 50.7739 17.596C51.5473 17.596 52.2819 17.6927 52.9779 17.886C53.7126 18.0407 54.3699 18.292 54.9499 18.64L51.8759 27.224C51.3733 26.876 50.8126 26.6247 50.1939 26.47C49.5753 26.2767 48.9179 26.18 48.2219 26.18C46.8686 26.18 45.6506 26.412 44.5679 26.876C43.5239 27.3013 42.6346 27.9587 41.8999 28.848ZM69.4241 43.928C66.7561 43.928 64.3588 43.3867 62.2321 42.304C60.1441 41.1827 58.5201 39.6553 57.3601 37.722C56.2001 35.7887 55.6201 33.5847 55.6201 31.11C55.6201 28.4033 56.2774 26.0253 57.5921 23.976C58.9068 21.888 60.7048 20.264 62.9861 19.104C65.3061 17.9053 67.8968 17.306 70.7581 17.306C73.4648 17.306 75.8621 17.8473 77.9501 18.93C80.0381 20.0127 81.6621 21.5013 82.8221 23.396C84.0208 25.2907 84.6201 27.4947 84.6201 30.008C84.6201 32.6373 83.9628 34.996 82.6481 37.084C81.3334 39.172 79.5354 40.8347 77.2541 42.072C74.9728 43.3093 72.3628 43.928 69.4241 43.928ZM70.4101 37.432C71.2994 37.432 71.9954 37.2 72.4981 36.736C73.0394 36.2333 73.4068 35.4987 73.6001 34.532C73.7934 33.5267 73.8901 32.27 73.8901 30.762C73.8901 29.0607 73.7548 27.7267 73.4841 26.76C73.2134 25.7547 72.7881 25.0393 72.2081 24.614C71.6281 24.15 70.9128 23.918 70.0621 23.918C69.2114 23.918 68.5154 24.15 67.9741 24.614C67.4328 25.078 67.0461 25.7933 66.8141 26.76C66.6208 27.7267 66.5241 28.964 66.5241 30.472C66.5241 32.1733 66.6594 33.5267 66.9301 34.532C67.2394 35.5373 67.6841 36.272 68.2641 36.736C68.8828 37.2 69.5981 37.432 70.4101 37.432ZM110.876 43.986C106.12 43.986 102.099 43.1933 98.812 41.608C95.564 40.0227 93.1086 37.78 91.446 34.88C89.822 31.98 89.01 28.5967 89.01 24.73C89.01 21.5593 89.532 18.698 90.576 16.146C91.62 13.594 93.1086 11.4093 95.042 9.592C97.014 7.736 99.334 6.32467 102.002 5.358C104.709 4.35267 107.705 3.85 110.992 3.85C113.351 3.85 115.729 4.10133 118.126 4.604C120.562 5.068 122.785 5.80267 124.796 6.808L120.388 15.798C118.571 14.1353 116.869 12.9753 115.284 12.318C113.737 11.6607 112.113 11.332 110.412 11.332C108.401 11.332 106.7 11.7767 105.308 12.666C103.916 13.5553 102.853 14.8893 102.118 16.668C101.422 18.4467 101.074 20.6507 101.074 23.28C101.074 26.3347 101.499 28.8673 102.35 30.878C103.201 32.85 104.419 34.3193 106.004 35.286C107.628 36.2527 109.542 36.736 111.746 36.736C113.099 36.736 114.375 36.5813 115.574 36.272C116.773 35.924 117.836 35.46 118.764 34.88L115.806 38.186V29.138H110.354V22.7H125.086V41.028C123.733 41.724 122.225 42.304 120.562 42.768C118.938 43.1933 117.295 43.5027 115.632 43.696C113.969 43.8893 112.384 43.986 110.876 43.986ZM131.786 43V19.046L142.168 17.364V43H131.786ZM137.122 14.058C135.421 14.058 134.067 13.594 133.062 12.666C132.095 11.6993 131.612 10.404 131.612 8.78C131.612 7.19466 132.095 5.91866 133.062 4.952C134.067 3.98533 135.421 3.502 137.122 3.502C138.785 3.502 140.099 3.98533 141.066 4.952C142.071 5.91866 142.574 7.19466 142.574 8.78C142.574 10.404 142.071 11.6993 141.066 12.666C140.099 13.594 138.785 14.058 137.122 14.058ZM148.253 43V18.872L156.605 17.48L158.577 22.468V43H148.253ZM156.257 28.848L154.981 26.586C156.335 23.7633 157.785 21.5593 159.331 19.974C160.917 18.3887 162.85 17.596 165.131 17.596C165.905 17.596 166.639 17.6927 167.335 17.886C168.07 18.0407 168.727 18.292 169.307 18.64L166.233 27.224C165.731 26.876 165.17 26.6247 164.551 26.47C163.933 26.2767 163.275 26.18 162.579 26.18C161.226 26.18 160.008 26.412 158.925 26.876C157.881 27.3013 156.992 27.9587 156.257 28.848ZM179.001 43.522C176.526 43.522 174.864 42.9033 174.013 41.666C173.162 40.39 172.737 38.592 172.737 36.272V2.69L182.771 0.949999V35.576C182.771 36.1947 182.848 36.7167 183.003 37.142C183.196 37.5287 183.564 37.722 184.105 37.722C184.376 37.722 184.685 37.7027 185.033 37.664C185.381 37.5867 185.768 37.49 186.193 37.374L187.527 40.97C186.483 41.666 185.284 42.2653 183.931 42.768C182.578 43.2707 180.934 43.522 179.001 43.522ZM198.455 43.928C197.411 43.928 196.289 43.8507 195.091 43.696C193.931 43.58 192.829 43.3867 191.785 43.116C190.741 42.8453 189.851 42.5167 189.117 42.13L191.147 35.402C191.997 35.982 192.983 36.4653 194.105 36.852C195.265 37.2 196.328 37.374 197.295 37.374C198.455 37.374 199.325 37.2193 199.905 36.91C200.523 36.6007 200.833 36.1947 200.833 35.692C200.833 35.1507 200.562 34.7447 200.021 34.474C199.518 34.1647 198.841 33.894 197.991 33.662C197.14 33.43 196.251 33.1787 195.323 32.908C194.395 32.5987 193.505 32.1733 192.655 31.632C191.843 31.0907 191.166 30.3753 190.625 29.486C190.122 28.558 189.871 27.3593 189.871 25.89C189.871 23.9953 190.335 22.41 191.263 21.134C192.229 19.858 193.563 18.9107 195.265 18.292C196.966 17.6347 198.957 17.306 201.239 17.306C202.592 17.306 204.042 17.422 205.589 17.654C207.135 17.886 208.489 18.1953 209.649 18.582L207.445 24.962C206.749 24.4207 205.84 24.0147 204.719 23.744C203.636 23.4347 202.708 23.28 201.935 23.28C200.813 23.28 200.001 23.454 199.499 23.802C198.996 24.1113 198.745 24.498 198.745 24.962C198.745 25.5033 199.015 25.9093 199.557 26.18C200.137 26.4507 200.852 26.702 201.703 26.934C202.553 27.166 203.462 27.4367 204.429 27.746C205.434 28.0167 206.362 28.442 207.213 29.022C208.063 29.5633 208.759 30.298 209.301 31.226C209.881 32.154 210.171 33.3527 210.171 34.822C210.171 35.9433 209.977 37.0453 209.591 38.128C209.204 39.172 208.566 40.1387 207.677 41.028C206.826 41.9173 205.647 42.6133 204.139 43.116C202.631 43.6573 200.736 43.928 198.455 43.928Z" fill="#2C3746"/>
</svg>
