<svg width="111" height="26" viewBox="0 0 111 26" fill="none" xmlns="http://www.w3.org/2000/svg">
<path d="M6.26442 17.3423C5.92256 17.3423 5.40977 17.3195 4.72605 17.274C4.04233 17.2284 3.37 17.1486 2.70907 17.0347V14.334C3.50674 14.4251 4.20186 14.4935 4.79442 14.5391C5.38698 14.5619 5.97954 14.5733 6.57209 14.5733C7.82558 14.5733 8.86256 14.4023 9.68302 14.0605C10.5035 13.7186 11.1074 13.2058 11.4949 12.5221C11.9051 11.8384 12.1102 11.0065 12.1102 10.0265C12.1102 8.47674 11.6202 7.29163 10.6402 6.47116C9.66023 5.6507 8.34977 5.24046 6.70884 5.24046H4.00814V25H0.418605V2.50558H7.32419C9.0107 2.50558 10.4921 2.77907 11.7684 3.32605C13.0447 3.85023 14.036 4.61372 14.7426 5.61651C15.4719 6.59651 15.8365 7.78163 15.8365 9.17186C15.8365 10.2886 15.5972 11.337 15.1186 12.317C14.6628 13.297 14.0133 14.163 13.17 14.9151C12.3267 15.6672 11.3126 16.2598 10.1274 16.6928C8.96512 17.1258 7.67744 17.3423 6.26442 17.3423ZM18.2044 25V10.9837L20.9735 10.3684L21.5888 13.5477V25H18.2044ZM21.0077 16.0091L20.2214 15.1544C20.9507 13.7414 21.8054 12.6133 22.7854 11.77C23.7882 10.904 24.8707 10.4709 26.033 10.4709C26.5572 10.4709 27.0358 10.5393 27.4688 10.676C27.9247 10.8128 28.3235 11.0179 28.6654 11.2914L27.3321 14.163C27.0358 13.9351 26.6826 13.7642 26.2723 13.6502C25.8849 13.5135 25.4747 13.4451 25.0416 13.4451C24.2895 13.4451 23.5602 13.6616 22.8537 14.0947C22.1472 14.5049 21.5319 15.143 21.0077 16.0091ZM36.5338 25.376C35.0979 25.376 33.8103 25.0684 32.6707 24.453C31.554 23.8149 30.6765 22.9488 30.0384 21.8549C29.4003 20.7381 29.0812 19.4733 29.0812 18.0602C29.0812 16.556 29.4345 15.2228 30.141 14.0605C30.8475 12.8753 31.8047 11.9523 33.0126 11.2914C34.2205 10.6305 35.5879 10.3 37.1149 10.3C38.5507 10.3 39.827 10.6191 40.9438 11.2572C42.0605 11.8726 42.9379 12.7272 43.5761 13.8212C44.2142 14.9151 44.5333 16.1686 44.5333 17.5816C44.5333 19.0858 44.1914 20.4305 43.5077 21.6156C42.824 22.7779 41.8782 23.7009 40.6703 24.3847C39.4624 25.0456 38.0835 25.376 36.5338 25.376ZM37.0124 23.0514C37.9012 23.0514 38.6305 22.8121 39.2003 22.3335C39.7928 21.8549 40.2259 21.2281 40.4993 20.4533C40.7956 19.6784 40.9438 18.8465 40.9438 17.9577C40.9438 16.8409 40.75 15.8837 40.3626 15.086C39.9979 14.2884 39.4852 13.6844 38.8242 13.2742C38.1861 12.8412 37.4568 12.6247 36.6363 12.6247C35.7931 12.6247 35.0638 12.864 34.4484 13.3426C33.8559 13.7984 33.4114 14.4023 33.1152 15.1544C32.8189 15.9065 32.6707 16.7498 32.6707 17.6842C32.6707 18.8009 32.8645 19.7695 33.2519 20.59C33.6393 21.3877 34.1635 22.003 34.8245 22.436C35.4854 22.8463 36.2147 23.0514 37.0124 23.0514ZM59.5511 25.4102C56.9986 25.4102 54.7765 24.943 52.8848 24.0086C51.016 23.0514 49.5688 21.7295 48.5432 20.043C47.5404 18.3337 47.039 16.3623 47.039 14.1288C47.039 12.3967 47.3467 10.8014 47.962 9.34279C48.6002 7.86139 49.489 6.58512 50.6286 5.51395C51.7681 4.44279 53.1014 3.61093 54.6283 3.01837C56.1781 2.40302 57.8874 2.09535 59.7562 2.09535C61.0781 2.09535 62.4 2.27767 63.7218 2.64232C65.0665 2.98418 66.263 3.51977 67.3114 4.24907L65.6704 7.56511C64.5765 6.53953 63.4369 5.83302 62.2518 5.44558C61.0895 5.03535 59.9955 4.83023 58.97 4.83023C57.3062 4.83023 55.8818 5.20628 54.6967 5.95837C53.5116 6.68767 52.6 7.71325 51.9618 9.03512C51.3237 10.3342 51.0046 11.8384 51.0046 13.5477C51.0046 15.3709 51.3807 16.9777 52.1327 18.3679C52.9076 19.7353 53.9788 20.8065 55.3462 21.5814C56.7365 22.3335 58.3432 22.7095 60.1665 22.7095C61.1693 22.7095 62.1607 22.607 63.1407 22.4019C64.1207 22.174 65.0323 21.8093 65.8755 21.3079L63.9953 23.4958V16.6244H59.6537V13.9579H67.4139V23.53C66.6618 23.9402 65.8414 24.2821 64.9525 24.5556C64.0865 24.8291 63.1976 25.0342 62.286 25.1709C61.3744 25.3305 60.4627 25.4102 59.5511 25.4102ZM72.0531 25V10.9837L75.4375 10.3684V25H72.0531ZM73.7282 7.15488C73.09 7.15488 72.5659 6.97256 72.1556 6.60791C71.7682 6.22046 71.5745 5.70767 71.5745 5.06953C71.5745 4.4314 71.7682 3.9186 72.1556 3.53116C72.5659 3.14372 73.09 2.95 73.7282 2.95C74.3663 2.95 74.8905 3.14372 75.3007 3.53116C75.711 3.9186 75.9161 4.4314 75.9161 5.06953C75.9161 5.70767 75.711 6.22046 75.3007 6.60791C74.8905 6.97256 74.3663 7.15488 73.7282 7.15488ZM79.969 25V10.9837L82.7381 10.3684L83.3534 13.5477V25H79.969ZM82.7723 16.0091L81.986 15.1544C82.7153 13.7414 83.5699 12.6133 84.5499 11.77C85.5527 10.904 86.6353 10.4709 87.7976 10.4709C88.3218 10.4709 88.8004 10.5393 89.2334 10.676C89.6892 10.8128 90.0881 11.0179 90.4299 11.2914L89.0967 14.163C88.8004 13.9351 88.4471 13.7642 88.0369 13.6502C87.6495 13.5135 87.2392 13.4451 86.8062 13.4451C86.0541 13.4451 85.3248 13.6616 84.6183 14.0947C83.9118 14.5049 83.2964 15.143 82.7723 16.0091ZM95.5888 25.1709C94.4493 25.1709 93.663 24.9202 93.23 24.4188C92.8198 23.8947 92.6146 23.0514 92.6146 21.8891V1.00139L95.9649 0.420231V21.2395C95.9649 21.7637 96.0218 22.1853 96.1358 22.5044C96.2725 22.8235 96.6144 22.983 97.1614 22.983C97.3209 22.983 97.5032 22.9716 97.7084 22.9488C97.9363 22.9033 98.187 22.8349 98.4605 22.7437L98.9732 24.2479C98.4491 24.4986 97.9135 24.7151 97.3665 24.8974C96.8423 25.0798 96.2498 25.1709 95.5888 25.1709ZM105.035 25.4102C104.351 25.4102 103.679 25.3533 103.018 25.2393C102.38 25.1253 101.787 24.9772 101.24 24.7949C100.693 24.5898 100.238 24.3733 99.873 24.1453L100.762 21.4447C101.354 21.9688 102.061 22.3905 102.881 22.7095C103.725 23.0058 104.511 23.154 105.24 23.154C106.038 23.154 106.619 22.9602 106.984 22.5728C107.371 22.1853 107.565 21.7637 107.565 21.3079C107.565 20.7837 107.394 20.3735 107.052 20.0772C106.71 19.7809 106.266 19.5302 105.719 19.3251C105.172 19.0972 104.602 18.8921 104.01 18.7098C103.417 18.5047 102.847 18.2426 102.3 17.9235C101.753 17.6044 101.309 17.1942 100.967 16.6928C100.648 16.1914 100.488 15.5305 100.488 14.71C100.488 13.73 100.728 12.9209 101.206 12.2828C101.685 11.6219 102.334 11.1205 103.155 10.7786C103.975 10.4367 104.876 10.2658 105.856 10.2658C106.585 10.2658 107.326 10.357 108.078 10.5393C108.83 10.7216 109.491 10.9723 110.06 11.2914L109.137 13.8212C108.682 13.3426 108.1 13.0007 107.394 12.7956C106.687 12.5677 106.118 12.4537 105.685 12.4537C104.91 12.4537 104.351 12.6133 104.01 12.9323C103.668 13.2286 103.497 13.5819 103.497 13.9921C103.497 14.4707 103.668 14.8581 104.01 15.1544C104.374 15.4279 104.819 15.6672 105.343 15.8723C105.89 16.0774 106.471 16.294 107.086 16.5219C107.702 16.727 108.283 16.9891 108.83 17.3081C109.377 17.6272 109.821 18.0488 110.163 18.573C110.528 19.0972 110.71 19.7695 110.71 20.59C110.71 21.2281 110.585 21.8435 110.334 22.436C110.106 23.0058 109.753 23.5186 109.274 23.9744C108.796 24.4074 108.203 24.7493 107.497 25C106.79 25.2735 105.97 25.4102 105.035 25.4102Z" fill="black"/>
</svg>
